<svg xmlns="http://www.w3.org/2000/svg" width="23.174" height="21.739" viewBox="0 0 23.174 21.739">
  <g id="favorite" transform="translate(-0.036)">
    <path id="Path_76" data-name="Path 76" d="M23.092,9.048l-4.569,5.067.656,6.718a1.03,1.03,0,0,1-.43.713,1,1,0,0,1-.814.17l-6.311-2.692L5.312,21.716a.98.98,0,0,1-.814-.181,1.056,1.056,0,0,1-.43-.7l.656-6.718L.154,9.048A.988.988,0,0,1,.1,8.234,1.085,1.085,0,0,1,.629,7.6L7.37,6.153,10.854.317a1.092,1.092,0,0,1,1.538,0l3.484,5.836L22.617,7.6a1.085,1.085,0,0,1,.532.633A.988.988,0,0,1,23.092,9.048Z" transform="translate(0)" fill="#fff"/>
  </g>
</svg>
