<svg xmlns="http://www.w3.org/2000/svg" width="23.174" height="23.794" viewBox="0 0 23.174 23.794">
  <g id="settings" transform="translate(-3 -2.438)">
    <path id="Path_77" data-name="Path 77" d="M25.676,16.611l-.024-.02-1.632-1.28a.833.833,0,0,1-.316-.69v-.6a.828.828,0,0,1,.316-.684l1.632-1.281.024-.02a1.38,1.38,0,0,0,.305-1.762L23.772,6.455l-.007-.011a1.389,1.389,0,0,0-1.679-.585l-.018.007-1.919.772a.825.825,0,0,1-.748-.067q-.254-.16-.517-.3a.825.825,0,0,1-.424-.611l-.289-2.048-.006-.037A1.408,1.408,0,0,0,16.8,2.438H12.375A1.392,1.392,0,0,0,11.007,3.6l0,.029-.288,2.052a.828.828,0,0,1-.421.611q-.264.142-.517.3a.823.823,0,0,1-.746.066L7.109,5.879l-.018-.007a1.39,1.39,0,0,0-1.68.587L5.4,6.47,3.192,10.295A1.382,1.382,0,0,0,3.5,12.059l.024.02,1.633,1.28a.833.833,0,0,1,.316.69v.6a.828.828,0,0,1-.316.684L3.521,16.611l-.024.02a1.38,1.38,0,0,0-.305,1.762L5.4,22.215l.007.011a1.389,1.389,0,0,0,1.679.585L7.1,22.8l1.918-.772a.825.825,0,0,1,.748.067q.254.161.517.3a.825.825,0,0,1,.424.611L11,25.061l.006.037a1.408,1.408,0,0,0,1.37,1.134H16.8a1.392,1.392,0,0,0,1.368-1.158l0-.029.288-2.052a.828.828,0,0,1,.423-.611c.177-.1.35-.2.517-.3a.823.823,0,0,1,.746-.066l1.921.773.018.007a1.389,1.389,0,0,0,1.68-.587l.007-.011,2.209-3.822a1.381,1.381,0,0,0-.3-1.764ZM18.72,14.529a4.149,4.149,0,1,1-1.211-3.117,4.138,4.138,0,0,1,1.211,3.117Z" fill="#fff"/>
  </g>
</svg>
