<svg xmlns="http://www.w3.org/2000/svg" width="509.831" height="509.829" viewBox="0 0 509.831 509.829"
  fill="#fff"
>
  <g id="sniper" transform="translate(0 -0.001)">
    <g id="Group_78" data-name="Group 78">
      <g id="Group_77" data-name="Group 77">
        <path id="Path_123" data-name="Path 123" d="M402.541,233.58H509.826C499.522,109.441,400.386,10.305,276.247,0V107.286A149.435,149.435,0,0,1,402.541,233.58Z"/>
        <path id="Path_124" data-name="Path 124" d="M359.426,276.249H340.247a21.333,21.333,0,0,1,0-42.666h19.179A107,107,0,0,0,276.247,150.4v19.179a21.333,21.333,0,1,1-42.666,0V150.4A107,107,0,0,0,150.4,233.583h19.179a21.333,21.333,0,1,1,0,42.666H150.4a107,107,0,0,0,83.179,83.179V340.249a21.333,21.333,0,0,1,42.666,0v19.179A107,107,0,0,0,359.426,276.249Zm-104.512,0a21.333,21.333,0,1,1,21.333-21.333A21.341,21.341,0,0,1,254.914,276.249Z"/>
        <path id="Path_125" data-name="Path 125" d="M233.579,107.289V0C109.44,10.307,10.3,109.443,0,233.582H107.285A149.434,149.434,0,0,1,233.579,107.289Z"/>
        <path id="Path_126" data-name="Path 126" d="M107.287,276.251H0c10.3,124.139,109.44,223.275,233.579,233.579V402.544A149.436,149.436,0,0,1,107.287,276.251Z"/>
        <path id="Path_127" data-name="Path 127" d="M402.545,276.249A149.434,149.434,0,0,1,276.252,402.542V509.827c124.139-10.3,223.275-109.44,233.579-233.579H402.545Z"/>
      </g>
    </g>
  </g>
</svg>
