<svg xmlns="http://www.w3.org/2000/svg" width="496.659" height="497.066" viewBox="0 0 496.659 497.066"
  fill="#fff"
>
  <g id="user" transform="translate(-20.301 -50.593)">
    <path id="Path_128" data-name="Path 128" d="M5,154.12A149.12,149.12,0,1,1,154.12,303.24,149.12,149.12,0,0,1,5,154.12Z" transform="translate(114.505 45.593)" fill-rule="evenodd"/>
    <path id="Path_129" data-name="Path 129" d="M89.318,38.173C130.156,20.448,183.737,15,250.328,15c66.648,0,120.269,5.458,161.121,23.223,44.5,19.349,71.548,52.308,85.724,98.843a33.779,33.779,0,0,1-32.316,43.623H35.862A33.828,33.828,0,0,1,3.5,136.993C17.7,90.451,44.788,57.5,89.318,38.173Z" transform="translate(18.295 366.971)" fill-rule="evenodd"/>
  </g>
</svg>
